<svg xmlns="http://www.w3.org/2000/svg" width="184" height="30" viewBox="0 0 367.812 60">
  <defs>
    <style>
      .cls-1 {
        fill: #00baff;
      }

      .cls-1, .cls-2, .cls-3 {
        fill-rule: evenodd;
      }

      .cls-2 {
        fill: #008eff;
      }

      .cls-3 {
        fill: #fff;
      }
    </style>
  </defs>
  <path class="cls-1" d="M69.844,100A30.146,30.146,0,0,1,40.991,78.738a8.589,8.589,0,0,0,4.724-1.831c3.4-2.674,6.977-3.31,11.8,2.853a16.049,16.049,0,0,0,1.356,1.556,15.743,15.743,0,0,0,22.411,0,16.1,16.1,0,0,0,0-22.623,15.743,15.743,0,0,0-22.412,0,16.14,16.14,0,0,0-1.356,1.556c-4.825,6.163-8.406,5.528-11.8,2.853a8.588,8.588,0,0,0-4.724-1.83A30.131,30.131,0,1,1,69.844,100ZM69.839,64a6,6,0,1,1-6.032,6A6.016,6.016,0,0,1,69.839,64Z" transform="translate(-41 -40)"/>
  <path class="cls-2" d="M69.844,93A23.085,23.085,0,0,1,47.48,75.744c2.893-1.523,6.037-1.092,10.036,4.017a16.049,16.049,0,0,0,1.356,1.556,15.743,15.743,0,0,0,22.411,0,16.1,16.1,0,0,0,0-22.623,15.743,15.743,0,0,0-22.412,0,16.14,16.14,0,0,0-1.356,1.556c-4,5.109-7.143,5.54-10.036,4.017A23.092,23.092,0,1,1,69.844,93Z" transform="translate(-41 -40)"/>
  <path id="endpoint_admin" data-name="endpoint admin" class="cls-3" d="M140.525,69.664c0-5.72-4.36-9.479-9.679-9.479-5.36,0-9.919,3.76-9.919,9.8,0,5.76,4.2,9.679,9.919,9.679,3.28,0,6.559-1.28,8.319-3.64l-3.08-3.08a6.48,6.48,0,0,1-4.879,2.08c-2.52,0-4.28-1.2-4.84-3.36h14.079C140.485,70.824,140.525,70.184,140.525,69.664Zm-14.159-1.4a4.3,4.3,0,0,1,4.56-3.52c2.36,0,4.2,1.32,4.359,3.52h-8.919Zm29.039-8.079c-1.84,0-4.8,1.08-5.6,3.6v-3.12h-5.24V79.3h5.24V69.744c0-3.4,2.319-4.4,4.2-4.4,1.8,0,3.56,1.32,3.56,4.28V79.3h5.24V69.064C162.845,63.464,160.285,60.185,155.405,60.185Zm26.479-9.479V62.9a7.375,7.375,0,0,0-6-2.68c-4.8,0-9.159,3.72-9.159,9.719s4.359,9.719,9.159,9.719a7.6,7.6,0,0,0,6-2.68V79.3h5.24v-28.6h-5.24Zm-5,24.078a4.831,4.831,0,0,1-4.84-4.84A4.84,4.84,0,1,1,176.885,74.783Zm26.759-14.6a7.465,7.465,0,0,0-6,2.72v-2.24h-5.24v27.8h5.24V76.983c1.32,1.88,3.88,2.68,6,2.68,4.8,0,9.16-3.72,9.16-9.719S208.444,60.185,203.644,60.185Zm-1,14.559a4.82,4.82,0,1,1,4.8-4.8A4.738,4.738,0,0,1,202.645,74.743Zm23.2,4.92c5.319,0,10.039-3.84,10.039-9.719,0-5.919-4.72-9.759-10.039-9.759s-10.04,3.84-10.04,9.759C215.805,75.823,220.525,79.663,225.845,79.663Zm0-4.88a4.862,4.862,0,1,1,4.719-4.84A4.658,4.658,0,0,1,225.845,74.783Zm16.76-17.438a3.228,3.228,0,0,0,3.319-3.16,3.326,3.326,0,0,0-6.639,0A3.255,3.255,0,0,0,242.605,57.345Zm-2.6,21.958h5.239V60.665h-5.239V79.3Zm21.358-19.118c-1.839,0-4.8,1.08-5.6,3.6v-3.12h-5.24V79.3h5.24V69.744c0-3.4,2.32-4.4,4.2-4.4,1.8,0,3.559,1.32,3.559,4.28V79.3h5.24V69.064C268.8,63.464,266.243,60.185,261.363,60.185Zm23.2,0.48H280.6V53.825h-5.239v6.839h-3.4V64.7h3.4V79.3H280.6V64.7h3.96v-4.04Zm29.119-.04v3.6a8.356,8.356,0,0,0-7.44-4,9.743,9.743,0,0,0,0,19.478,8.353,8.353,0,0,0,7.44-4.04V79.3h2.559V60.625h-2.559Zm-7.24,16.639a7.19,7.19,0,0,1-7.119-7.359,7.112,7.112,0,0,1,7.119-7.239,7.186,7.186,0,0,1,7.24,7.359A7.111,7.111,0,0,1,306.442,77.263Zm31.839-27.158V64.224a8.355,8.355,0,0,0-7.439-4,9.743,9.743,0,0,0,0,19.478,8.351,8.351,0,0,0,7.439-4.04V79.3h2.56v-29.2h-2.56Zm-7.239,27.158a7.19,7.19,0,0,1-7.12-7.359,7.112,7.112,0,0,1,7.12-7.239,7.186,7.186,0,0,1,7.239,7.359A7.111,7.111,0,0,1,331.042,77.263Zm38.6-17.039c-2.28,0-5.519.76-6.879,4.48a6.657,6.657,0,0,0-6.56-4.48c-2.759,0-5.439,1.28-6.4,3.76v-3.36h-2.56V79.3h2.56V68.944c0.08-4.48,2.96-6.239,5.959-6.239,2.96,0,5.12,2.2,5.12,5.839V79.3h2.52V69.624l0.04,0.16c-0.28-4.56,2.28-7.119,5.8-7.079,3.08,0,5.24,2.24,5.24,5.839V79.3h2.56V68.424C377.04,63.264,374.16,60.225,369.64,60.225Zm14.842-4.68a1.828,1.828,0,1,0,0-3.64A1.825,1.825,0,1,0,384.482,55.545ZM383.2,79.3h2.559V60.625H383.2V79.3Zm18-19.078c-2.32,0-5.36,1.08-6.48,3.76v-3.36h-2.559V79.3h2.559V68.944c0.08-4.52,3.24-6.2,6.24-6.2s5.279,2.2,5.279,5.8V79.3h2.56V68.424C408.8,63.264,405.72,60.225,401.2,60.225Z" transform="translate(-41 -40)"/>
</svg>
