<svg xmlns="http://www.w3.org/2000/svg" width="30" height="30.5" viewBox="0 0 60 61">
  <defs>
    <style>
      .cls-1 {
        fill: #00adef;
        fill-rule: evenodd;
      }
    </style>
  </defs>
  <path class="cls-1" d="M748.013,574.843c-0.208,0-10.561,9.489-10.561,9.683a10.668,10.668,0,0,0,.353,1.051,5.533,5.533,0,0,1,.32,1.73c-0.016.436-.016,0.921-0.016,1.083,0.016,0.372,3.478,2.6,8.67,5.626,1.426,0.84,1.923,1.05,2.1.905,0.209-.178.257-1.972,0.257-9.441h0v-9.215l-0.513-.711A3.677,3.677,0,0,0,748.013,574.843Zm4.968-.016a5.825,5.825,0,0,0-1.25.711l-1.058.711,0.048,9.2c0.048,8.244.112,9.635,0.417,9.635,0.032,0.016,1.122-.647,2.388-1.455h0c6.859-4.349,8.141-5.222,8.221-5.545a12.512,12.512,0,0,0,.128-1.714l0.048-1.358-3.494-4.187C754.679,576.346,753.3,574.827,752.981,574.827Zm12.211-4.462c-8.173-9.845-14.92-18.009-15-18.139a0.406,0.406,0,0,0-.224-0.226,0.211,0.211,0,0,0-.128.194c-0.032.129-6.731,8.228-14.92,18.025S720.032,588.083,720,588.164s6.619,5.609,14.776,12.318,14.92,12.286,15.032,12.4c0.192,0.194.224,0.178,0.753-.258,0.3-.259,7.051-5.8,14.984-12.319s14.439-11.9,14.455-11.946C780.032,588.309,773.365,580.21,765.192,570.365Zm3.894,19.932a3.762,3.762,0,0,1-2.948,1.148,3.606,3.606,0,0,1-2.18-.614,2.836,2.836,0,0,0-1.474-.517c-0.385.1-6.3,4.187-7.612,5.254-0.8.662-.866,0.9-0.449,1.891a4.811,4.811,0,0,1-.1,3.443,5.113,5.113,0,0,1-2.8,2.425,3.746,3.746,0,0,1-2.661-.032h0a5.253,5.253,0,0,1-2.516-2.215,5.194,5.194,0,0,1,.112-4.251c0.5-1.035.5-1.067,0.177-1.31-0.177-.129-2.308-1.326-4.712-2.635s-4.5-2.457-4.647-2.538a1.247,1.247,0,0,0-1.09.372,4.137,4.137,0,0,1-5.369-.372,4.506,4.506,0,0,1-.224-6.353,4.256,4.256,0,0,1,4.471-1.132c0.866,0.291.882,0.291,1.426-.129,0.642-.485,5.786-5.222,8.27-7.6l1.714-1.649-0.512-1.083a4.891,4.891,0,0,1,1.314-6.063,4.3,4.3,0,0,1,3.157-1.034,4.878,4.878,0,0,1,4.407,6.676c-0.337.873-.337,0.889-0.016,1.423,0.272,0.469,4.9,6.111,7.355,8.988a2.97,2.97,0,0,0,1.074.906,5.843,5.843,0,0,0,1.218-.356,4.454,4.454,0,0,1,5.9,2.506A4.541,4.541,0,0,1,769.086,590.3Z" transform="translate(-720 -552)"/>
</svg>
