<svg xmlns="http://www.w3.org/2000/svg" width="20" height="20" viewBox="0 0 40 40">
  <path class="fill-color" fill-rule="evenodd" d="M85.7,681.858a2,2,0,0,0,2.829.012l0.012-.012,10.881-10.88a2.008,2.008,0,0,0-2.84-2.84l-9.461,9.42-3.7-3.66a2.008,2.008,0,1,0-2.84,2.84ZM114.006,667h-4a2,2,0,1,0,0,4h4a2.027,2.027,0,0,1,2,2v2h-11a2,2,0,0,0,0,4h11v22a2.027,2.027,0,0,1-2,2H86a2.027,2.027,0,0,1-2-2V689a2,2,0,0,0-4,0v12a6.018,6.018,0,0,0,6,6h28a6.018,6.018,0,0,0,6-6V673A6.018,6.018,0,0,0,114.006,667Z" transform="translate(-80 -667)"/>
</svg>
