<svg xmlns="http://www.w3.org/2000/svg" width="20" height="20" viewBox="0 0 40 40">
  <path class="fill-color" fill-rule="evenodd" d="M96,355H82a2,2,0,0,0-2,2v14a2,2,0,0,0,2,2H96a2,2,0,0,0,2-2V357A2,2,0,0,0,96,355Zm-2,14H84V359H94v10Zm24-36H104a2,2,0,0,0-2,2v14a2,2,0,0,0,2,2h14a2,2,0,0,0,2-2V335A2,2,0,0,0,118,333Zm-2,14H106V337h10v10Zm2,8H104a2,2,0,0,0-2,2v14a2,2,0,0,0,2,2h14a2,2,0,0,0,2-2V357A2,2,0,0,0,118,355Zm-2,14H106V359h10v10ZM96,333H82a2,2,0,0,0-2,2v14a2,2,0,0,0,2,2H96a2,2,0,0,0,2-2V335A2,2,0,0,0,96,333Zm-2,14H84V337H94v10Z" transform="translate(-80 -333)"/>
</svg>
