<?xml version="1.0" encoding="utf-8"?>
<svg id="Filled" fill="#00baff" viewBox="0 0 24 24" width="20" height="20" xmlns="http://www.w3.org/2000/svg">
  <path d="M 13 11.879 C 13 12.051 12.956 12.218 12.875 12.364 C 12.794 12.51 12.677 12.636 12.531 12.727 L 10.611 13.927 L 8.691 15.127 C 8.364 15.331 7.987 15.32 7.689 15.162 C 7.391 15.003 7.172 14.697 7.158 14.312 C 7.152 14.133 7.194 13.959 7.275 13.806 C 7.356 13.654 7.477 13.522 7.629 13.427 L 9.315 12.376 L 11 11.325 L 11 9.163 L 11 7 C 11 6.615 11.208 6.302 11.5 6.134 C 11.792 5.966 12.167 5.942 12.5 6.134 C 12.655 6.223 12.78 6.35 12.866 6.5 C 12.952 6.65 13 6.821 13 7 L 13 9.44 L 13 11.879 Z" style="stroke-width: 6px;"/>
  <path d="M 22.602 1.398 C 25.083 4.016 26.865 8.077 27 12 C 26.987 13.251 26.797 14.683 26.489 15.882 C 26.156 17.074 25.605 18.41 24.99 19.5 C 22.047 24.094 16.706 27 12 27 C 7.294 27 1.953 24.094 -0.99 19.5 C -3.498 14.654 -3.209 8.654 -0.99 4.5 C 1.497 0.502 6.553 -2.748 12.004 -3 C 15.927 -2.865 19.984 -1.083 22.602 1.398 Z M 11.998 3 C 8.212 2.749 5.759 4.498 4.206 7.5 C 2.383 10.346 2.094 13.346 4.206 16.5 C 5.881 19.905 8.624 21 12 21 C 15.376 21 18.119 19.906 19.794 16.5 C 20.233 15.766 20.485 15.154 20.693 14.33 C 20.925 13.511 21.013 12.858 21 12.003 C 21.127 9.303 20.224 7.364 18.36 5.641 C 16.637 3.777 14.699 2.873 11.998 3 Z M 16 11.879 C 15.951 12.433 15.759 13.35 15.498 13.819 C 15.243 14.28 14.573 14.928 14.121 15.271 L 10.279 17.672 C 9.114 18.103 7.234 18.141 6.277 17.809 C 5.465 17.199 4.453 15.616 4.16 14.413 C 4.195 13.831 4.414 12.898 4.627 12.395 C 4.927 11.935 5.579 11.235 6.042 10.881 L 7.728 9.83 L 8 9.66 L 8 7 C 8.251 5.785 9.132 4.035 10.004 3.534 C 10.871 3.035 12.819 3.145 13.997 3.535 C 14.474 3.873 15.193 4.527 15.469 5.008 C 15.737 5.476 15.944 6.416 16 7 Z M 9.101 12.515 C 9.317 12.807 13.284 8.569 12.996 8.734 C 12.713 8.897 11.516 8.739 11.003 8.733 C 10.836 8.573 8.74 12.499 9.101 12.515 Z" style="fill: none;"/>
  <path d="M 12 0.155 L 12.001 -0.5 C 15.415 -0.474 18.589 0.942 20.835 3.165 C 23.058 5.411 24.474 8.586 24.5 12 C 24.498 13.086 24.35 14.195 24.074 15.235 C 23.794 16.274 23.367 17.308 22.825 18.25 C 20.41 22.349 16.152 24.5 12 24.5 C 7.848 24.5 3.59 22.349 1.175 18.25 C -1.168 14.109 -0.879 9.359 1.175 5.75 C 2.221 3.952 3.748 2.355 5.572 1.259 C 6.483 0.711 7.511 0.262 8.577 -0.036 C 9.11 -0.185 9.676 -0.304 10.242 -0.381 C 10.807 -0.459 11.932 -0.495 11.932 -0.495 C 11.942 -0.496 11.974 -0.133 12 0.155 Z M 11.999 0.5 C 11.87 0.502 11.412 0.512 11.178 0.528 C 10.905 0.546 10.644 0.573 10.378 0.61 C 9.847 0.682 9.347 0.787 8.846 0.927 C 7.847 1.207 6.943 1.601 6.087 2.116 C 4.375 3.145 3.015 4.548 2.041 6.25 C 0.053 9.641 -0.236 13.891 2.041 17.75 C 4.244 21.651 8.07 23.5 12 23.5 C 15.93 23.5 19.756 21.651 21.959 17.75 C 22.471 16.868 22.848 15.954 23.108 14.977 C 23.372 13.999 23.502 13.02 23.5 12 C 23.518 8.79 22.248 5.969 20.128 3.873 C 18.031 1.752 15.21 0.482 11.999 0.5 Z M 12.034 0.499 C 12.034 0.499 12.034 0.499 12.034 0.499 C 12.034 0.499 12.034 0.499 12.034 0.499 Z M 13.5 11.879 C 13.492 12.115 13.423 12.407 13.312 12.607 C 13.202 12.805 12.993 13.018 12.796 13.151 L 10.876 14.351 L 8.956 15.551 C 8.489 15.793 7.861 15.79 7.454 15.603 C 7.07 15.369 6.719 14.85 6.658 14.329 C 6.659 14.083 6.731 13.782 6.834 13.571 C 6.951 13.368 7.161 13.141 7.364 13.003 L 9.05 11.952 L 10.5 11.048 L 10.5 7 C 10.542 6.477 10.862 5.924 11.251 5.701 C 11.638 5.477 12.276 5.476 12.749 5.701 C 12.958 5.831 13.182 6.046 13.3 6.251 C 13.416 6.454 13.491 6.753 13.5 7 L 13.5 11.879 L 12.5 11.879 L 12.5 7 C 12.509 6.889 12.488 6.846 12.432 6.749 C 12.378 6.654 12.352 6.615 12.251 6.568 C 12.059 6.409 11.945 6.455 11.749 6.567 C 11.554 6.68 11.458 6.753 11.5 7 L 11.5 11.602 L 9.58 12.8 L 7.893 13.851 C 7.793 13.903 7.761 13.94 7.717 14.041 C 7.658 14.135 7.645 14.182 7.658 14.294 C 7.625 14.543 7.711 14.637 7.924 14.721 C 8.112 14.849 8.239 14.869 8.426 14.703 L 10.346 13.503 L 12.266 12.303 C 12.361 12.254 12.386 12.215 12.438 12.121 C 12.489 12.029 12.508 11.987 12.5 11.879 Z" style="fill: none;"/>
  <ellipse style="fill: none; fill-rule: nonzero; stroke: rgb(0, 186, 255); stroke-width: 2px; paint-order: fill;" cx="12.001" cy="11.999" rx="10.973" ry="10.973"/>
</svg>