<svg xmlns="http://www.w3.org/2000/svg" width="19.984" height="16" viewBox="0 0 39.969 32">
  <path class="fill-color" fill-rule="evenodd" d="M99.985,216C88.949,216,80,225.239,80,236.639a21.173,21.173,0,0,0,2.677,10.322,1.971,1.971,0,0,0,2.738.763,2.109,2.109,0,0,0,.739-2.828h0A16.765,16.765,0,0,1,84,236.639a16,16,0,1,1,31.973.013,16.931,16.931,0,0,1-2.138,8.244,2.1,2.1,0,0,0,.728,2.821,0.067,0.067,0,0,0,.011.007,1.964,1.964,0,0,0,2.718-.763,21.018,21.018,0,0,0-7.314-28.2A19.494,19.494,0,0,0,99.985,216Zm5.676,11.89-3.1,3.179a5.665,5.665,0,0,0-2.578-.619,6.221,6.221,0,1,0,5.4,3.551l3.1-3.179a2.114,2.114,0,0,0,.011-2.92l-0.011-.012A1.954,1.954,0,0,0,105.661,227.886ZM99.985,238.7a2.065,2.065,0,0,1,0-4.128,1.959,1.959,0,0,1,1.4.578h0a2.1,2.1,0,0,1,.6,1.486A2.032,2.032,0,0,1,99.985,238.7Z" transform="translate(-80 -216)"/>
</svg>
