<svg xmlns="http://www.w3.org/2000/svg" width="20" height="20" viewBox="0 0 40 40">
  <path class="fill-color" fill-rule="evenodd" d="M2638,754a2,2,0,0,0-2,2v8a2,2,0,0,1-2,2h-28a2,2,0,0,1-2-2v-8a2,2,0,0,0-4,0v8a6,6,0,0,0,6,6h28a6,6,0,0,0,6-6v-8A2,2,0,0,0,2638,754Zm-19.42,3.42a1.951,1.951,0,0,0,.66.42,1.88,1.88,0,0,0,1.52,0,1.951,1.951,0,0,0,.66-0.42l8-8a2.008,2.008,0,0,0-2.84-2.84l-4.58,4.6V732a2,2,0,0,0-4,0v19.18l-4.58-4.6a2.008,2.008,0,0,0-2.84,2.84Z" transform="translate(-2600 -730)"/>
</svg>
