<svg xmlns="http://www.w3.org/2000/svg" width="23" height="21" viewBox="0 0 46 42">
  <path fill="#ffc000" fill-rule="evenodd" d="M1499.96,968.468a2.094,2.094,0,1,0,2.08,2.094A2.087,2.087,0,0,0,1499.96,968.468Zm22.17,3.078-16.73-29.305a6.208,6.208,0,0,0-8.48-2.425,6.3,6.3,0,0,0-2.41,2.425l-16.62,29.305a6.3,6.3,0,0,0,2.18,8.6,6.2,6.2,0,0,0,3.14.878h33.5a6.251,6.251,0,0,0,6.29-6.218A6.334,6.334,0,0,0,1522.13,971.546Zm-3.59,4.186a2.082,2.082,0,0,1-1.83,1.067h-33.5a2.071,2.071,0,0,1-1.83-1.067,2.112,2.112,0,0,1,0-2.093L1498,944.334a2.072,2.072,0,0,1,3.7,0l16.73,29.305a2.121,2.121,0,0,1,.11,2.135v-0.042Zm-18.58-24.009a2.086,2.086,0,0,0-2.08,2.093v8.373a2.08,2.08,0,1,0,4.16,0v-8.373A2.092,2.092,0,0,0,1499.96,951.723Z" transform="translate(-1477 -939.031)"/>
</svg>
