<svg xmlns="http://www.w3.org/2000/svg" width="20.016" height="19.985" viewBox="0 0 40.031 39.97">
  <path class="fill-color" fill-rule="evenodd" d="M142.144,1112.99H118.028a6.027,6.027,0,0,1-6.028-6.02v-20.06a5.9,5.9,0,0,1,6-5.91h2a8.163,8.163,0,0,1,8.234-7.98A7.79,7.79,0,0,1,136,1081h6a1.993,1.993,0,0,1,2,2v6a7.966,7.966,0,0,1,4.534,14.56A8.329,8.329,0,0,1,144,1105h0v6A1.868,1.868,0,0,1,142.144,1112.99ZM118,1085a1.9,1.9,0,0,0-1.981,1.91v20.06a2.01,2.01,0,0,0,2.009,2.01L140,1109v-6a2.974,2.974,0,0,1,.978-2.05,2.02,2.02,0,0,1,1.829-.26,3.573,3.573,0,0,0,3.5-.46A3.763,3.763,0,0,0,148,1097a3.406,3.406,0,0,0-.792-2.71,3.792,3.792,0,0,0-4.361-1.1,2.023,2.023,0,0,1-1.829-.27A2.713,2.713,0,0,1,140,1091v-6h-6a2.337,2.337,0,0,1-2.377-1.99,2.021,2.021,0,0,1,.111-0.78,3.548,3.548,0,0,0-.462-3.49,3.905,3.905,0,0,0-5.338-1.38,3.822,3.822,0,0,0-1.877,3.53,3.781,3.781,0,0,0,.262,1.34,2.011,2.011,0,0,1-1.234,2.56A5.732,5.732,0,0,1,122,1085h-4Z" transform="translate(-112 -1073.03)"/>
</svg>
