<svg xmlns="http://www.w3.org/2000/svg" width="20.016" height="19.969" viewBox="0 0 40.031 39.938">
  <path class="fill-color" fill-rule="evenodd" d="M99.983,823.969h-14a2,2,0,0,1-2-2V794.017a2,2,0,0,1,2-2h10v5.99a6,6,0,0,0,6,5.99h6v2a2,2,0,0,0,4,0v-4.113a2.61,2.61,0,0,0-.12-0.539v-0.18a2.126,2.126,0,0,0-.38-0.559h0l-12-11.981h0a2.152,2.152,0,0,0-.56-0.379,0.6,0.6,0,0,0-.18,0,1.776,1.776,0,0,0-.66-0.22h-12.1a6,6,0,0,0-6,5.99v27.955a6,6,0,0,0,6,5.991h14A2,2,0,1,0,99.983,823.969Zm0-29.133,5.18,5.172h-3.18a2,2,0,0,1-2-2v-3.175Zm-10,5.172a2,2,0,1,0,0,3.993h2a2,2,0,1,0,0-3.993h-2Zm29.418,24.54-2.339-2.316a6.862,6.862,0,0,0-1.08-8.247h0a6.981,6.981,0,0,0-12,4.972,6.922,6.922,0,0,0,10.26,6.09l2.32,2.337a2,2,0,0,0,2.828.011l0.011-.011a1.994,1.994,0,0,0,.012-2.824Zm-6.339-3.494a3.084,3.084,0,0,1-4.22,0,3,3,0,0,1-.86-2.1,2.915,2.915,0,0,1,.88-2.116,3.016,3.016,0,0,1,5.115,1.891c0,0.075.006,0.15,0,.225A3,3,0,0,1,113.062,821.054ZM101.982,808h-12a2,2,0,1,0,0,3.993h12A2,2,0,1,0,101.982,808Zm-4,11.981a2,2,0,1,0,0-3.994h-8a2,2,0,1,0,0,3.994h8Z" transform="translate(-79.969 -788.031)"/>
</svg>
