<svg xmlns="http://www.w3.org/2000/svg" width="18" height="20" viewBox="0 0 36 40">
  <path class="fill-color" fill-rule="evenodd" d="M216,1070a2,2,0,0,0-2,2h0v1.27a18.059,18.059,0,0,1-14,6.73H188a6.006,6.006,0,0,0-6,6v4a6.006,6.006,0,0,0,6,6h0.967l-4.805,11.21a2,2,0,0,0,1.048,2.63,2.135,2.135,0,0,0,.79.16h8a2.006,2.006,0,0,0,1.838-1.21l5.447-12.71A18.026,18.026,0,0,1,214,1102.73V1104a2,2,0,0,0,4,0v-32a2,2,0,0,0-2-2h0Zm-28,22a2,2,0,0,1-2-2v-4a2,2,0,0,1,2-2h2v8h-2Zm4.681,14h-3.648l4.285-10h3.649ZM214,1097.04a22.075,22.075,0,0,0-14-5.04h-6v-8h6a22.132,22.132,0,0,0,14-5.04v18.08Z" transform="translate(-182 -1070)"/>
</svg>
