<svg xmlns="http://www.w3.org/2000/svg" width="22" height="21" viewBox="0 0 44 42">
  <path class="fill-color" fill-rule="evenodd" d="M84,538.008h9.12a2,2,0,0,1,1.9,1.36l1.08,3.28a2,2,0,0,0,1.9,1.359h14a2,2,0,0,1,2,2,2,2,0,0,0,4,0,6,6,0,0,0-6-6H99.44l-0.64-2a6,6,0,0,0-5.68-4H84a6,6,0,0,0-6,6V566a6,6,0,0,0,6,6H96a2,2,0,1,0,0-4H84a2,2,0,0,1-2-2V540.008A2,2,0,0,1,84,538.008Zm34,22.356V558a6,6,0,0,0-12,0v2.36A6,6,0,0,0,102,566v4a6,6,0,0,0,6,6h8a6,6,0,0,0,6-6v-4A6,6,0,0,0,118,560.364ZM110,558a2,2,0,0,1,4,0v2h-4v-2Zm8,12a2,2,0,0,1-2,2h-8a2,2,0,0,1-2-2v-4a2,2,0,0,1,2-2h8a2,2,0,0,1,2,2v4Z" transform="translate(-78 -534)"/>
</svg>
