<svg xmlns="http://www.w3.org/2000/svg" width="20" height="20" viewBox="0 0 40 40">
  <path class="fill-color" fill-rule="evenodd" d="M118.792,468.266v-0.1a20.023,20.023,0,0,0-37.614,0v0.1a19.784,19.784,0,0,0,0,13.471v0.1a20.023,20.023,0,0,0,37.614,0v-0.1A19.794,19.794,0,0,0,118.792,468.266ZM84.443,479.011a15.688,15.688,0,0,1,0-8.019h3.725a33.56,33.56,0,0,0,0,8.019H84.443Zm1.642,4.009h2.8a24.394,24.394,0,0,0,2,5.152A16.039,16.039,0,0,1,86.085,483.02Zm2.8-16.037h-2.8a16.024,16.024,0,0,1,4.747-5.152A24.363,24.363,0,0,0,88.889,466.983Zm9.053,23.454a12.711,12.711,0,0,1-4.867-7.417h4.867v7.417Zm0-11.426H92.214a28.812,28.812,0,0,1,0-8.019h5.728v8.019Zm0-12.028H93.075a12.708,12.708,0,0,1,4.867-7.417v7.417Zm15.862,0H111a24.408,24.408,0,0,0-2-5.152A16.02,16.02,0,0,1,113.8,466.983Zm-11.856-7.417a12.717,12.717,0,0,1,4.867,7.417h-4.867v-7.417Zm0,30.871V483.02h4.867A12.72,12.72,0,0,1,101.948,490.437Zm5.728-11.426h-5.728v-8.019h5.728A28.873,28.873,0,0,1,107.676,479.011Zm1.382,9.161a24.486,24.486,0,0,0,2-5.152h2.8A16.03,16.03,0,0,1,109.058,488.172Zm6.389-9.161h-3.726a33.473,33.473,0,0,0,0-8.019h3.726A15.7,15.7,0,0,1,115.447,479.011Z" transform="translate(-80 -455)"/>
</svg>
