<svg xmlns="http://www.w3.org/2000/svg" height="20" viewBox="0 0 40 45">
  <path fill="#fff" fill-rule="evenodd" d="M808.42,952.58a2,2,0,0,0-2.828-.012l-0.012.012-4.58,4.6-4.58-4.6a2.008,2.008,0,0,0-2.84,2.84l4.6,4.58-4.6,4.58c-0.784.778,9.642,19.636,10.42,20.42,0,0-10.424-17.584-10.42-17.58a2,2,0,0,0,2.828.012l0.012-.012,4.58-4.6,4.58,4.6a2,2,0,0,0,2.828.012l0.012-.012a2,2,0,0,0,.012-2.828l-0.012-.012-4.6-4.58,4.6-4.58a2,2,0,0,0,.012-2.828ZM815,940H787a6,6,0,0,0-6,6v28a6,6,0,0,0,6,6h28a6,6,0,0,0,6-6V946A6,6,0,0,0,815,940Zm2,34a2,2,0,0,1-2,2H787a2,2,0,0,1-2-2V946a2,2,0,0,1,2-2h28a2,2,0,0,1,2,2v28Z" transform="translate(-781 -940)"/>
</svg>
