<?xml version="1.0" standalone="no"?>
<!DOCTYPE svg PUBLIC "-//W3C//DTD SVG 20010904//EN"
 "http://www.w3.org/TR/2001/REC-SVG-20010904/DTD/svg10.dtd">
<svg version="1.0" xmlns="http://www.w3.org/2000/svg"
 width="480.000000pt" height="480.000000pt" viewBox="0 0 480.000000 480.000000"
 preserveAspectRatio="xMidYMid meet">
<metadata>
Created by potrace 1.11, written by Peter Selinger 2001-2013
</metadata>
<g transform="translate(0.000000,480.000000) scale(0.100000,-0.100000)"
fill="#000000" stroke="none">
<path d="M2179 4796 c-2 -2 -38 -6 -79 -10 -403 -34 -842 -205 -1190 -465
-103 -76 -117 -88 -260 -231 -191 -189 -330 -381 -449 -617 -47 -94 -151 -346
-151 -367 0 -2 19 -7 43 -11 127 -20 225 -64 359 -161 190 -137 324 -167 488
-110 128 44 271 162 415 341 280 348 628 519 1040 510 201 -5 355 -43 537
-135 340 -170 598 -510 667 -880 7 -36 16 -83 20 -105 12 -65 4 -303 -13 -390
-98 -496 -459 -885 -933 -1004 -294 -74 -597 -40 -874 99 -169 85 -281 180
-444 375 -221 265 -379 367 -565 367 -99 -1 -182 -31 -294 -108 -48 -32 -113
-75 -144 -96 -60 -38 -190 -85 -257 -92 -33 -3 -39 -7 -37 -22 6 -33 51 -159
67 -190 8 -16 15 -32 15 -36 0 -16 89 -191 143 -283 100 -167 221 -321 372
-470 151 -150 150 -149 258 -228 297 -219 661 -380 977 -432 19 -3 42 -8 50
-10 68 -19 205 -29 410 -29 229 0 279 4 459 40 167 33 324 81 485 147 80 33
272 136 361 194 406 265 702 619 911 1088 57 128 133 400 154 550 6 44 13 94
16 110 10 53 12 417 3 495 -29 258 -71 430 -162 665 -69 178 -208 419 -331
575 -331 420 -785 721 -1285 850 -43 11 -89 23 -102 25 -13 3 -35 7 -49 10
-41 9 -62 12 -120 20 -30 4 -64 9 -75 12 -23 5 -431 14 -436 9z"/>
<path d="M2269 2875 c-3 -2 -20 -7 -39 -10 -53 -9 -150 -61 -202 -108 -155
-140 -203 -367 -116 -556 58 -129 179 -229 320 -266 60 -16 211 -12 264 8 198
73 321 237 330 438 9 208 -115 393 -315 470 -51 20 -229 38 -242 24z"/>
</g>
</svg>
