<svg fill="none" height="512" viewBox="0 0 32 32" width="512" xmlns="http://www.w3.org/2000/svg"><g fill="rgb(0,0,0)"><path clip-rule="evenodd" d="m23 22v4.5858l4.5858-4.5858zm-2-1c0-.5523.4477-1 1-1h8c.4045 0 .7691.2436.9239.6173s.0692.8038-.2168 1.0898l-8 8c-.286.286-.7161.3716-1.0898.2168s-.6173-.5194-.6173-.9239z" fill-rule="evenodd"/><path d="m19 5v2h8v-2z"/><path d="m11 10v-2h16v2z"/><path d="m11 11v2h16v-2z"/><path d="m9 20.5c0-.5523-.44772-1-1-1s-1 .4477-1 1v3.5c0 .2652.10536.5196.29289.7071l2 2c.39053.3905 1.02371.3905 1.41421 0s.3905-1.0237 0-1.4142l-1.7071-1.7071z"/><path clip-rule="evenodd" d="m7 3c0-1.65685 1.34315-3 3-3h18c1.6569 0 3 1.34315 3 3v18c0 .2652-.1054.5196-.2929.7071l-8 8c-.1875.1875-.4419.2929-.7071.2929h-8.7084c-1.4102 1.2447-3.2627 2-5.2916 2-4.41828 0-8-3.5817-8-8 0-4.0796 3.05369-7.446 7-7.9381zm14.5858 25h-6.6561c.6807-1.1767 1.0703-2.5429 1.0703-4 0-4.0796-3.0537-7.446-7-7.9381v-13.0619c0-.55228.44772-1 1-1h18c.5523 0 1 .44771 1 1v17.5858zm-13.5858-10c-3.31371 0-6 2.6863-6 6s2.68629 6 6 6c3.3137 0 6-2.6863 6-6s-2.6863-6-6-6z" fill-rule="evenodd"/></g></svg>