<svg viewBox="0 0 512 512" xmlns="http://www.w3.org/2000/svg"><path d="m341 261c11.046875 0 20 8.953125 20 20v60.449219c0 5.902343-2.609375 11.503906-7.128906 15.308593l-32.042969 26.949219c-3.75 3.152344-8.320313 4.691407-12.863281 4.691407-5.699219 0-11.359375-2.421876-15.316406-7.125-7.109376-8.457032-6.019532-21.070313 2.433593-28.179688l24.917969-20.957031v-51.136719c0-11.046875 8.953125-20 20-20zm151-79c-11.046875 0-20 8.953125-20 20v30.773438c-32.054688-38.78125-79.988281-61.875-131.449219-61.875-94.042969 0-170.550781 76.507812-170.550781 170.550781s76.710938 170.550781 171 170.550781c25.765625 0 51.234375-5.804688 74.296875-16.855469.390625-.175781.78125-.347656 1.164063-.542969.105468-.058593.210937-.132812.316406-.191406 2.691406-1.324218 5.363281-2.699218 7.984375-4.167968 9.640625-5.390626 13.085937-17.578126 7.691406-27.21875-5.390625-9.640626-17.574219-13.085938-27.214844-7.695313-19.503906 10.90625-41.714843 16.671875-64.238281 16.671875-72.234375 0-131-58.566406-131-130.550781s58.5625-130.550781 130.550781-130.550781c41.015625 0 79.105469 19.167968 103.597657 51.101562h-31.148438c-11.046875 0-20 8.953125-20 20s8.953125 20 20 20h39c33.085938 0 60-26.914062 60-60v-40c0-11.046875-8.953125-20-20-20zm-14.289062 226.921875c-9.152344-6.183594-21.582032-3.773437-27.761719 5.386719-6.179688 9.160156-3.761719 21.589844 5.390625 27.769531 3.429687 2.3125 7.320312 3.421875 11.171875 3.421875 6.429687 0 12.726562-3.089844 16.597656-8.820312 6.167969-9.148438 3.761719-21.578126-5.398437-27.757813zm33.597656-61.832031c-.128906-.640625-.289063-1.269532-.476563-1.898438-.191406-.621094-.410156-1.242187-.660156-1.839844-.25-.601562-.53125-1.203124-.839844-1.773437-.3125-.578125-.640625-1.136719-1-1.679687-.359375-.546876-.761719-1.078126-1.171875-1.578126-.410156-.511718-.859375-1-1.320312-1.460937-.457032-.460937-.949219-.910156-1.457032-1.320313-.5-.417968-1.042968-.808593-1.582031-1.167968-.539062-.359375-1.109375-.699219-1.679687-1-.582032-.3125-1.171875-.589844-1.769532-.839844-.601562-.25-1.222656-.472656-1.839843-.660156-.632813-.191406-1.273438-.351563-1.902344-.480469-.640625-.128906-1.300781-.230469-1.949219-.289063-1.300781-.132812-2.621094-.132812-3.929687 0-.648438.058594-1.300781.160157-1.941407.289063-.640624.128906-1.277343.289063-1.898437.480469-.621094.1875-1.238281.410156-1.839844.660156-.601562.25-1.199219.527344-1.769531.839844-.582031.300781-1.140625.640625-1.679688 1-.550781.359375-1.082031.75-1.582031 1.167968-.507812.410157-1 .859376-1.460937 1.320313-.46875.460937-.910156.949219-1.328125 1.460937-.410157.5-.800781 1.03125-1.160157 1.578126-.359374.542968-.699218 1.101562-1 1.679687-.308593.570313-.589843 1.171875-.839843 1.773437-.25.597657-.46875 1.21875-.660157 1.839844-.1875.628906-.351562 1.257813-.480468 1.898438s-.230469 1.300781-.289063 1.941406c-.070312.660156-.101562 1.320312-.101562 1.96875s.03125 1.308594.101562 1.96875c.058594.640625.160157 1.300781.289063 1.941406.132812.628906.292968 1.269532.480468 1.898438.191407.621094.410157 1.242187.660157 1.839844.25.601562.53125 1.203124.839843 1.773437.300782.566406.640626 1.136719 1 1.679687.359376.546876.75 1.078126 1.160157 1.578126.417969.511718.859375 1 1.328125 1.460937.460937.460937.953125.910156 1.460937 1.320313.5.410156 1.03125.808593 1.582031 1.167968.539063.359375 1.097657.699219 1.679688 1 .570312.3125 1.167969.589844 1.769531.839844.601563.25 1.21875.472656 1.839844.660156.621094.191406 1.261719.351563 1.898437.480469.640626.128906 1.292969.230469 1.941407.289063.648437.070312 1.320312.101562 1.96875.101562.652343 0 1.3125-.03125 1.960937-.101562.648438-.058594 1.3125-.160157 1.949219-.289063.632813-.128906 1.273437-.289063 1.902344-.480469.617187-.1875 1.238281-.410156 1.839843-.660156.597657-.25 1.1875-.527344 1.769532-.839844.570312-.300781 1.140625-.640625 1.679687-1 .539063-.359375 1.082031-.757812 1.582031-1.167968.507813-.410157 1-.859376 1.457032-1.320313.460937-.460937.910156-.949219 1.320312-1.460937.410156-.5.8125-1.03125 1.171875-1.578126.359375-.542968.6875-1.113281 1-1.679687.308594-.570313.589844-1.171875.839844-1.773437.25-.597657.46875-1.21875.660156-1.839844.1875-.628906.347657-1.269532.476563-1.898438.132812-.640625.230468-1.300781.292968-1.941406.070313-.660156.097657-1.320312.097657-1.96875s-.027344-1.308594-.097657-1.96875c-.0625-.640625-.164062-1.300781-.292968-1.941406zm-347.308594 124.910156h-84c-22.054688 0-40-17.945312-40-40v-312c0-22.054688 17.945312-40 40-40h25v20c0 11.046875 8.953125 20 20 20s20-8.953125 20-20v-20h90v20c0 11.046875 8.953125 20 20 20s20-8.953125 20-20v-20h91v20c0 11.046875 8.953125 20 20 20s20-8.953125 20-20v-20h26c22.054688 0 40 17.945312 40 40 0 11.046875 8.953125 20 20 20s20-8.953125 20-20c0-44.113281-35.886719-80-80-80h-26v-20c0-11.046875-8.953125-20-20-20s-20 8.953125-20 20v20h-91v-20c0-11.046875-8.953125-20-20-20s-20 8.953125-20 20v20h-90v-20c0-11.046875-8.953125-20-20-20s-20 8.953125-20 20v20h-25c-44.113281 0-80 35.886719-80 80v312c0 44.113281 35.886719 80 80 80h84c11.046875 0 20-8.953125 20-20s-8.953125-20-20-20zm0 0"/></svg>