<svg xmlns="http://www.w3.org/2000/svg" width="16" height="20" viewBox="0 0 32 40">
  <defs>
    <style>
      .cls-1 {
        fill: #00114a;
        fill-rule: evenodd;
      }
    </style>
  </defs>
  <path class="cls-1" d="M1361,1043a2.983,2.983,0,0,0-2,5.22V1051a2,2,0,0,0,4,0v-2.78A2.98,2.98,0,0,0,1361,1043Zm10-8v-4a10,10,0,0,0-20,0v4a6,6,0,0,0-6,6v14a6,6,0,0,0,6,6h20a6,6,0,0,0,6-6v-14A6,6,0,0,0,1371,1035Zm-16-4a6,6,0,0,1,12,0v4h-12v-4Zm18,24a2.006,2.006,0,0,1-2,2h-20a2.006,2.006,0,0,1-2-2v-14a2.006,2.006,0,0,1,2-2h20a2.006,2.006,0,0,1,2,2v14Z" transform="translate(-1345 -1021)"/>
</svg>
