<svg xmlns="http://www.w3.org/2000/svg" width="20" height="20" viewBox="0 0 40 40">
  <path class="fill-color" fill-rule="evenodd" d="M118.638,922.1l-3.78-1.26,1.78-3.56a2,2,0,0,0-.38-2.28L112,910.742a2,2,0,0,0-2.3-.38l-3.56,1.779-1.259-3.779A2,2,0,0,0,103,907H97a2,2,0,0,0-1.9,1.36l-1.26,3.78-3.559-1.78a2,2,0,0,0-2.28.38L83.742,915a2,2,0,0,0-.38,2.3l1.78,3.56-3.78,1.26A2,2,0,0,0,80,924v6a2,2,0,0,0,1.36,1.9l3.78,1.259-1.78,3.56a2,2,0,0,0,.38,2.28L88,943.258a2,2,0,0,0,2.3.38l3.56-1.78,1.26,3.78a2,2,0,0,0,1.9,1.36h6a2,2,0,0,0,1.9-1.36l1.26-3.78,3.56,1.78a2,2,0,0,0,2.26-.38L116.258,939a2,2,0,0,0,.38-2.3l-1.78-3.56,3.78-1.26A2,2,0,0,0,120,930v-6A2,2,0,0,0,118.638,922.1ZM116,928.56l-2.4.8a4,4,0,0,0-2.571,5.038,3.951,3.951,0,0,0,.251.6l1.14,2.28-2.2,2.2-2.22-1.2a4,4,0,0,0-5.363,1.8,3.927,3.927,0,0,0-.216.524l-0.8,2.4H98.44l-0.8-2.4A4,4,0,0,0,92,938.279l-2.28,1.14-2.2-2.2,1.2-2.22A4,4,0,0,0,87,929.61a4.06,4.06,0,0,0-.6-0.25l-2.4-.8v-3.12l2.4-.8A4,4,0,0,0,88.721,919l-1.14-2.22,2.2-2.2,2.22,1.14a4,4,0,0,0,5.639-2.32l0.8-2.4h3.12l0.8,2.4a4,4,0,0,0,5.038,2.571,3.951,3.951,0,0,0,.6-0.251l2.28-1.14,2.2,2.2-1.2,2.22a4,4,0,0,0,1.8,5.363,3.85,3.85,0,0,0,.524.216l2.4,0.8v3.18ZM100,919a8,8,0,1,0,8,8A8,8,0,0,0,100,919Zm0,12a4,4,0,1,1,4-4A4,4,0,0,1,100,931Z" transform="translate(-80 -907)"/>
</svg>
