<svg xmlns="http://www.w3.org/2000/svg" width="16" height="20.03" viewBox="0 0 32 40.06">
  <path class="fill-color" fill-rule="evenodd" d="M195,1148a2.987,2.987,0,0,0-2,5.23v2.78a2,2,0,1,0,4,0v-2.78A2.987,2.987,0,0,0,195,1148Zm10-8.01H189v-4.01a6,6,0,0,1,10.24-4.27,6.149,6.149,0,0,1,1.56,2.77,2,2,0,0,0,3.88-1h0a10.164,10.164,0,0,0-2.62-4.59,10,10,0,0,0-17.06,7.09v4.01a6,6,0,0,0-6,6.01v14.02a6,6,0,0,0,6,6.01h20a6,6,0,0,0,6-6.01V1146A6,6,0,0,0,205,1139.99Zm2,20.03a2,2,0,0,1-2,2H185a2,2,0,0,1-2-2V1146a2,2,0,0,1,2-2.01h20a2,2,0,0,1,2,2.01v14.02Z" transform="translate(-179 -1125.97)"/>
</svg>
