<svg xmlns="http://www.w3.org/2000/svg" width="20" height="20" viewBox="0 0 40 40">
  <path class="fill-color" fill-rule="evenodd" d="M2535.82,757.02h-9.06a2,2,0,0,0,0,4h4.8A16,16,0,0,1,2504,750a2,2,0,0,0-4,0,20,20,0,0,0,33.76,14.46V768a2,2,0,0,0,4,0v-9A2,2,0,0,0,2535.82,757.02ZM2526,750a6,6,0,1,0-6,6A6,6,0,0,0,2526,750Zm-8,0a2,2,0,1,1,2,2A2,2,0,0,1,2518,750Zm2-20a20,20,0,0,0-13.76,5.54V732a2,2,0,0,0-4,0v9a2,2,0,0,0,2,2h9a2,2,0,0,0,0-4h-4.8A16,16,0,0,1,2536,750a2,2,0,0,0,4,0A20,20,0,0,0,2520,730Z" transform="translate(-2500 -730)"/>
</svg>
