<svg xmlns="http://www.w3.org/2000/svg" width="20" height="20" viewBox="0 0 40 40">
  <path fill="#00baff" fill-rule="evenodd" d="M970.42,544.4l4.58-4.6v19.193a2,2,0,1,0,4,0V539.8l4.58,4.6a2,2,0,0,0,2.828.012l0.012-.012a2,2,0,0,0,.012-2.83l-0.012-.012-8-8a2.068,2.068,0,0,0-2.84,0l-8,8a2.009,2.009,0,0,0,2.84,2.842h0ZM995,552.989a2,2,0,0,0-2,2V567a2,2,0,0,1-2,2H963a2,2,0,0,1-2-2V554.99a2,2,0,1,0-4,0V567a6,6,0,0,0,6,6h28a6,6,0,0,0,6-6V554.99A2,2,0,0,0,995,552.989Z" transform="translate(-957 -533)"/>
</svg>
