<svg xmlns="http://www.w3.org/2000/svg" width="22.016" height="17" viewBox="0 0 44.031 34">
  <path class="fill-color" fill-rule="evenodd" d="M136.646,1151.44a9.826,9.826,0,0,0,3.407-7.44,10.02,10.02,0,0,0-20.039,0,9.828,9.828,0,0,0,3.406,7.44A16,16,0,0,0,114,1166a2,2,0,0,0,4.008,0,12.024,12.024,0,0,1,24.048,0,2,2,0,0,0,4.008,0A16,16,0,0,0,136.646,1151.44Zm-6.613-1.44a6,6,0,1,1,6.012-6A6.009,6.009,0,0,1,130.033,1150Zm19.519,0.64a10,10,0,0,0-7.5-16.64,2,2,0,1,0,0,4,5.988,5.988,0,0,1,3.006,11.18,1.995,1.995,0,0,0-.1,3.4l0.781,0.52,0.261,0.14a13.99,13.99,0,0,1,8.016,12.76,2,2,0,0,0,4.008,0A18,18,0,0,0,149.552,1150.64Z" transform="translate(-114 -1134)"/>
</svg>
